<?xml version="1.0" encoding="UTF-8" standalone="no"?>
<!DOCTYPE svg PUBLIC "-//W3C//DTD SVG 1.1//EN" "http://www.w3.org/Graphics/SVG/1.1/DTD/svg11.dtd">
<svg width="100%" height="100%" viewBox="0 0 1119 295" version="1.1" xmlns="http://www.w3.org/2000/svg" xmlns:xlink="http://www.w3.org/1999/xlink" xml:space="preserve" xmlns:serif="http://www.serif.com/" style="fill-rule:evenodd;clip-rule:evenodd;">
    <g transform="matrix(4.16667,0,0,4.16667,-977.244,-2222.84)">
        <rect x="325.711" y="544.339" width="66.478" height="11.631" style="fill:white;stroke:rgb(35,31,32);stroke-width:0.3px;"/>
    </g>
    <g transform="matrix(4.16667,0,0,4.16667,-977.244,-2125.96)">
        <rect x="325.711" y="532.714" width="66.478" height="11.631" style="fill:white;stroke:rgb(35,31,32);stroke-width:0.3px;"/>
    </g>
    <g transform="matrix(4.16667,0,0,4.16667,-977.244,-2029.08)">
        <rect x="325.711" y="521.088" width="66.478" height="11.631" style="fill:rgb(141,216,248);stroke:rgb(35,31,32);stroke-width:0.3px;"/>
    </g>
    <g transform="matrix(4.16667,0,0,4.16667,-977.244,-1932.21)">
        <rect x="325.711" y="509.463" width="66.478" height="11.631" style="fill:white;stroke:rgb(35,31,32);stroke-width:0.3px;"/>
    </g>
    <g transform="matrix(4.16667,0,0,4.16667,-977.244,-1835.33)">
        <rect x="325.711" y="497.838" width="66.478" height="11.631" style="fill:white;stroke:rgb(35,31,32);stroke-width:0.3px;"/>
    </g>
    <g transform="matrix(4.16667,0,0,4.16667,657.198,71.9899)">
        <path d="M0,0L40.5,0" style="fill:none;fill-rule:nonzero;stroke:rgb(35,31,32);stroke-width:0.5px;"/>
    </g>
    <g transform="matrix(4.16667,0,0,4.16667,-977.244,-2217.75)">
        <path d="M431.551,551.538L435.007,549.544L431.551,547.549L431.551,551.538" style="fill:rgb(35,31,32);fill-rule:nonzero;"/>
    </g>
    <g transform="matrix(4.12307,0.601136,0.601136,-4.12307,659.852,105.605)">
        <path d="M-0.212,-2.922L40.288,-2.922" style="fill:none;fill-rule:nonzero;stroke:rgb(35,31,32);stroke-width:0.5px;"/>
    </g>
    <g transform="matrix(4.16667,0,0,4.16667,-977.244,-2078.69)">
        <path d="M431.481,534.829L435.188,533.354L432.057,530.883L431.481,534.829" style="fill:rgb(35,31,32);fill-rule:nonzero;"/>
    </g>
    <g transform="matrix(4.00829,1.13785,1.13785,-4.00829,666.791,194.154)">
        <path d="M-0.792,-5.689L40.873,-5.689" style="fill:none;fill-rule:nonzero;stroke:rgb(35,31,32);stroke-width:0.5px;"/>
    </g>
    <g transform="matrix(4.16667,0,0,4.16667,-977.244,-1836.13)">
        <path d="M431.227,505.668L435.094,504.689L432.312,501.83L431.227,505.668" style="fill:rgb(35,31,32);fill-rule:nonzero;"/>
    </g>
    <g transform="matrix(4.16667,0,0,4.16667,-977.244,-2222.84)">
        <rect x="235.157" y="544.339" width="46.478" height="11.631" style="fill:white;stroke:rgb(35,31,32);stroke-width:0.3px;"/>
    </g>
    <g transform="matrix(4.16667,0,0,4.16667,196.556,71.9899)">
        <path d="M0,0L40.5,0" style="fill:none;fill-rule:nonzero;stroke:rgb(35,31,32);stroke-width:0.5px;"/>
    </g>
    <g transform="matrix(4.16667,0,0,4.16667,-977.244,-2217.75)">
        <path d="M321.628,551.538L325.083,549.544L321.628,547.549L321.628,551.538" style="fill:rgb(35,31,32);fill-rule:nonzero;"/>
    </g>
    <g transform="matrix(0,1,-1,0,176.867,-110.901)">
        <g transform="matrix(33.3333,0,0,33.3333,294.591,-340.547)">
        </g>
        <text x="261.258px" y="-340.547px" style="font-family:'Helvetica';font-size:33.333px;fill:rgb(35,31,32);">…</text>
    </g>
    <g transform="matrix(1,0,0,1,118.948,-223.03)">
        <g transform="matrix(33.3333,0,0,33.3333,453.734,251.272)">
        </g>
        <text x="346.166px" y="251.272px" style="font-family:'Menlo-Regular', 'Menlo', monospace;font-size:33.333px;fill:rgb(35,31,32);">e<tspan x="363.666px 381.166px 398.666px 416.166px 433.666px " y="251.272px 251.272px 251.272px 251.272px 251.272px ">nvp[]</tspan></text>
    </g>
    <g transform="matrix(1,0,0,1,118.948,-223.03)">
        <g transform="matrix(33.3333,0,0,33.3333,453.734,251.272)">
        </g>
        <text x="346.166px" y="251.272px" style="font-family:'Menlo-Regular', 'Menlo', monospace;font-size:33.333px;fill:none;stroke:rgb(35,31,32);stroke-width:0.63px;">e<tspan x="363.666px 381.166px 398.666px 416.166px 433.666px " y="251.272px 251.272px 251.272px 251.272px 251.272px ">nvp[]</tspan></text>
    </g>
    <g transform="matrix(4.16667,0,0,4.16667,-977.244,-938.218)">
        <clipPath id="_clip1">
            <rect x="235.007" y="225.507" width="267.403" height="69.928" clip-rule="nonzero"/>
        </clipPath>
        <g clip-path="url(#_clip1)">
            <g transform="matrix(1,0,0,1,0,-308.309)">
                <rect x="435.782" y="544.339" width="66.477" height="11.631" style="fill:white;stroke:rgb(35,31,32);stroke-width:0.3px;"/>
            </g>
            <g transform="matrix(1,0,0,1,0,-272.355)">
                <rect x="435.782" y="526.362" width="66.477" height="11.631" style="fill:white;stroke:rgb(35,31,32);stroke-width:0.3px;"/>
            </g>
            <g transform="matrix(0.24,0,0,0.24,261.49,180.993)">
                <g transform="matrix(33.3333,0,0,33.3333,469.134,263.572)">
                </g>
                <text x="344.066px" y="263.572px" style="font-family:'Menlo-Regular', 'Menlo', monospace;font-size:33.333px;fill:rgb(35,31,32);">e<tspan x="361.566px 379.066px 396.566px 414.066px 431.566px 449.066px " y="263.572px 263.572px 263.572px 263.572px 263.572px 263.572px ">nvp[0]</tspan></text>
            </g>
            <g transform="matrix(0.24,0,0,0.24,331.44,180.993)">
                <text x="436.105px" y="263.572px" style="font-family:'Menlo-Regular', 'Menlo', monospace;font-size:33.333px;fill:rgb(35,31,32);">&quot;<tspan x="454.447px 472.79px 491.133px " y="263.572px 263.572px 263.572px ">PWD</tspan></text>
                <text x="509.475px" y="263.572px" style="font-family:'Helvetica';font-size:33.333px;fill:rgb(35,31,32);">$</text>
                <text x="526.288px" y="263.572px" style="font-family:'Menlo-Regular', 'Menlo', monospace;font-size:33.333px;fill:rgb(35,31,32);">/<tspan x="544.631px 562.973px 581.316px 599.658px 618.001px 636.344px 654.686px 673.029px 691.371px " y="263.572px 263.572px 263.572px 263.572px 263.572px 263.572px 263.572px 263.572px 263.572px ">usr/droh&quot;</tspan></text>
                <text x="444.855px" y="338.489px" style="font-family:'Menlo-Regular', 'Menlo', monospace;font-size:33.333px;fill:rgb(35,31,32);">&quot;<tspan x="463.262px 481.67px 500.077px 518.485px 536.892px 555.299px 573.707px " y="338.489px 338.489px 338.489px 338.489px 338.489px 338.489px 338.489px ">PRINTER</tspan></text>
                <text x="592.114px" y="338.489px" style="font-family:'Helvetica';font-size:33.333px;fill:rgb(35,31,32);">$</text>
                <g transform="matrix(33.3333,0,0,33.3333,702.69,338.489)">
                </g>
                <text x="608.992px" y="338.489px" style="font-family:'Menlo-Regular', 'Menlo', monospace;font-size:33.333px;fill:rgb(35,31,32);">i<tspan x="627.399px 645.807px 664.214px 682.621px " y="338.489px 338.489px 338.489px 338.489px ">ron&quot;</tspan></text>
            </g>
            <g transform="matrix(1,0,0,1,0,-213.063)">
                <rect x="435.782" y="496.716" width="66.477" height="11.631" style="fill:white;stroke:rgb(35,31,32);stroke-width:0.3px;"/>
            </g>
        </g>
    </g>
    <g transform="matrix(1,0,0,1,430.355,-33.2714)">
        <text x="444.505px" y="311.196px" style="font-family:'Menlo-Regular', 'Menlo', monospace;font-size:33.333px;fill:rgb(35,31,32);">&quot;<tspan x="463.184px 481.864px 500.544px 519.223px " y="311.196px 311.196px 311.196px 311.196px ">USER</tspan></text>
        <text x="537.903px" y="311.196px" style="font-family:'Helvetica';font-size:33.333px;fill:rgb(35,31,32);">$</text>
        <g transform="matrix(33.3333,0,0,33.3333,649.84,311.196)">
        </g>
        <text x="555.053px" y="311.196px" style="font-family:'Menlo-Regular', 'Menlo', monospace;font-size:33.333px;fill:rgb(35,31,32);">d<tspan x="573.732px 592.412px 611.092px 629.771px " y="311.196px 311.196px 311.196px 311.196px ">roh&quot;</tspan></text>
    </g>
    <g transform="matrix(1,0,0,1,-186.335,-184.081)">
        <g transform="matrix(33.3333,0,0,33.3333,322.329,263.572)">
        </g>
        <text x="249.761px" y="263.572px" style="font-family:'Menlo-Regular', 'Menlo', monospace;font-size:33.333px;fill:rgb(35,31,32);">e<tspan x="267.261px 284.761px 302.261px " y="263.572px 263.572px 263.572px ">nvp</tspan></text>
    </g>
    <g transform="matrix(1,0,0,1,112.32,-147.119)">
        <g transform="matrix(33.3333,0,0,33.3333,469.141,275.244)">
        </g>
        <text x="344.073px" y="275.244px" style="font-family:'Menlo-Regular', 'Menlo', monospace;font-size:33.333px;fill:rgb(35,31,32);">e<tspan x="361.573px 379.073px 396.573px 414.073px 431.573px 449.073px " y="275.244px 275.244px 275.244px 275.244px 275.244px 275.244px ">nvp[1]</tspan></text>
    </g>
    <g transform="matrix(1,0,0,1,90.052,-73.2221)">
        <text x="337.041px" y="298.58px" style="font-family:'Menlo-Regular', 'Menlo', monospace;font-size:33.333px;fill:rgb(35,31,32);">e<tspan x="358.008px 378.976px 399.944px 420.911px 441.879px " y="298.58px 298.58px 298.58px 298.58px 298.58px ">nvp[n</tspan></text>
        <text x="462.846px" y="298.58px" style="font-family:'Helvetica';font-size:33.333px;fill:rgb(35,31,32);">!</text>
        <text x="473.007px" y="298.58px" style="font-family:'Menlo-Regular', 'Menlo', monospace;font-size:33.333px;fill:rgb(35,31,32);">1<tspan x="493.974px " y="298.58px ">]</tspan></text>
        <g transform="matrix(33.3333,0,0,33.3333,465.142,348.497)">
        </g>
        <text x="392.574px" y="348.497px" style="font-family:'Menlo-Regular', 'Menlo', monospace;font-size:33.333px;fill:rgb(35,31,32);">N<tspan x="410.074px 427.574px 445.074px " y="348.497px 348.497px 348.497px ">ULL</tspan></text>
    </g>
</svg>
