<?xml version="1.0" encoding="UTF-8" standalone="no"?>
<!DOCTYPE svg PUBLIC "-//W3C//DTD SVG 1.1//EN" "http://www.w3.org/Graphics/SVG/1.1/DTD/svg11.dtd">
<svg width="100%" height="100%" viewBox="0 0 1119 295" version="1.1" xmlns="http://www.w3.org/2000/svg" xmlns:xlink="http://www.w3.org/1999/xlink" xml:space="preserve" xmlns:serif="http://www.serif.com/" style="fill-rule:evenodd;clip-rule:evenodd;">
    <g transform="matrix(4.16667,0,0,4.16667,-977.244,-2637.79)">
        <rect x="325.711" y="643.926" width="66.478" height="11.631" style="fill:white;stroke:rgb(35,31,32);stroke-width:0.3px;"/>
    </g>
    <g transform="matrix(4.16667,0,0,4.16667,-977.244,-2540.91)">
        <rect x="325.711" y="632.301" width="66.478" height="11.631" style="fill:white;stroke:rgb(35,31,32);stroke-width:0.3px;"/>
    </g>
    <g transform="matrix(4.16667,0,0,4.16667,-977.244,-2444.03)">
        <rect x="325.711" y="620.675" width="66.478" height="11.631" style="fill:rgb(141,216,248);stroke:rgb(35,31,32);stroke-width:0.3px;"/>
    </g>
    <g transform="matrix(4.16667,0,0,4.16667,-977.244,-2347.15)">
        <rect x="325.711" y="609.05" width="66.478" height="11.631" style="fill:white;stroke:rgb(35,31,32);stroke-width:0.3px;"/>
    </g>
    <g transform="matrix(4.16667,0,0,4.16667,-977.244,-2250.28)">
        <rect x="325.711" y="597.425" width="66.478" height="11.631" style="fill:white;stroke:rgb(35,31,32);stroke-width:0.3px;"/>
    </g>
    <g transform="matrix(4.16667,0,0,4.16667,657.198,71.9899)">
        <path d="M0,0L40.5,0" style="fill:none;fill-rule:nonzero;stroke:rgb(35,31,32);stroke-width:0.5px;"/>
    </g>
    <g transform="matrix(4.16667,0,0,4.16667,-977.244,-2632.69)">
        <path d="M431.551,651.125L435.007,649.131L431.551,647.136L431.551,651.125" style="fill:rgb(35,31,32);fill-rule:nonzero;"/>
    </g>
    <g transform="matrix(4.12307,0.601136,0.601136,-4.12307,659.852,105.605)">
        <path d="M-0.212,-2.922L40.288,-2.922" style="fill:none;fill-rule:nonzero;stroke:rgb(35,31,32);stroke-width:0.5px;"/>
    </g>
    <g transform="matrix(4.16667,0,0,4.16667,-977.244,-2493.64)">
        <path d="M431.481,634.417L435.188,632.942L432.057,630.471L431.481,634.417" style="fill:rgb(35,31,32);fill-rule:nonzero;"/>
    </g>
    <g transform="matrix(4.00829,1.13785,1.13785,-4.00829,666.791,194.154)">
        <path d="M-0.792,-5.689L40.873,-5.689" style="fill:none;fill-rule:nonzero;stroke:rgb(35,31,32);stroke-width:0.5px;"/>
    </g>
    <g transform="matrix(4.16667,0,0,4.16667,-977.244,-2251.07)">
        <path d="M431.227,605.255L435.094,604.276L432.312,601.417L431.227,605.255" style="fill:rgb(35,31,32);fill-rule:nonzero;"/>
    </g>
    <g transform="matrix(4.16667,0,0,4.16667,-977.244,-2637.79)">
        <rect x="235.157" y="643.926" width="46.478" height="11.631" style="fill:white;stroke:rgb(35,31,32);stroke-width:0.3px;"/>
    </g>
    <g transform="matrix(4.16667,0,0,4.16667,196.556,71.9899)">
        <path d="M0,0L40.5,0" style="fill:none;fill-rule:nonzero;stroke:rgb(35,31,32);stroke-width:0.5px;"/>
    </g>
    <g transform="matrix(4.16667,0,0,4.16667,-977.244,-2632.69)">
        <path d="M321.628,651.125L325.083,649.131L321.628,647.136L321.628,651.125" style="fill:rgb(35,31,32);fill-rule:nonzero;"/>
    </g>
    <g transform="matrix(0,1,-1,0,176.867,-11.3144)">
        <g transform="matrix(33.3333,0,0,33.3333,195.004,-340.547)">
        </g>
        <text x="161.671px" y="-340.547px" style="font-family:'Helvetica';font-size:33.333px;fill:rgb(35,31,32);">…</text>
    </g>
    <g transform="matrix(1,0,0,1,118.948,-123.443)">
        <g transform="matrix(33.3333,0,0,33.3333,453.734,151.685)">
        </g>
        <text x="346.166px" y="151.685px" style="font-family:'PragmataPro', 'Menlo', monospace;font-size:33.333px;fill:rgb(35,31,32);">argv[]</text>
    </g>
    <g transform="matrix(1,0,0,1,118.948,-123.443)">
        <g transform="matrix(33.3333,0,0,33.3333,453.734,151.685)">
        </g>
        <text x="346.166px" y="151.685px" style="font-family:'PragmataPro', 'Menlo', monospace;font-size:33.333px;fill:none;stroke:rgb(35,31,32);stroke-width:0.63px;">argv[]</text>
    </g>
    <g transform="matrix(4.16667,0,0,4.16667,-977.244,-523.273)">
        <clipPath id="_clip1">
            <rect x="235.007" y="125.92" width="267.403" height="69.928" clip-rule="nonzero"/>
        </clipPath>
        <g clip-path="url(#_clip1)">
            <g transform="matrix(1,0,0,1,0,-507.483)">
                <rect x="435.782" y="643.926" width="66.477" height="11.631" style="fill:white;stroke:rgb(35,31,32);stroke-width:0.3px;"/>
            </g>
            <g transform="matrix(1,0,0,1,0,-471.529)">
                <rect x="435.782" y="625.949" width="66.477" height="11.631" style="fill:white;stroke:rgb(35,31,32);stroke-width:0.3px;"/>
            </g>
            <g transform="matrix(0.24,0,0,0.24,261.49,105.307)">
                <g transform="matrix(33.3333,0,0,33.3333,469.134,163.985)">
                </g>
                <text x="344.066px" y="163.985px" style="font-family:'PragmataPro', 'Menlo', monospace;font-size:33.333px;fill:rgb(35,31,32);">argv[0]</text>
            </g>
            <g transform="matrix(0.24,0,0,0.24,348.336,105.307)">
                <text x="467.087px" y="163.985px" style="font-family:'PragmataPro', 'Menlo', monospace;font-size:33.333px;fill:rgb(35,31,32);">&quot;<tspan x="484.587px 502.087px 519.587px " y="163.985px 163.985px 163.985px ">ls&quot;</tspan></text>
                <g transform="matrix(33.3333,0,0,33.3333,548.405,238.902)">
                </g>
                <text x="458.337px" y="238.902px" style="font-family:'PragmataPro', 'Menlo', monospace;font-size:33.333px;fill:rgb(35,31,32);">&quot;<tspan x="475.837px 493.337px 510.837px 528.337px " y="238.902px 238.902px 238.902px 238.902px ">-lt&quot;</tspan></text>
            </g>
            <g transform="matrix(1,0,0,1,0,-412.237)">
                <rect x="435.782" y="596.303" width="66.477" height="11.631" style="fill:white;stroke:rgb(35,31,32);stroke-width:0.3px;"/>
            </g>
        </g>
    </g>
    <g transform="matrix(1,0,0,1,407.656,66.3153)">
        <g transform="matrix(33.3333,0,0,33.3333,702.405,211.609)">
        </g>
        <text x="437.337px" y="211.609px" style="font-family:'PragmataPro', 'Menlo', monospace;font-size:33.333px;fill:rgb(35,31,32);">&quot;<tspan x="454.837px 472.337px 489.837px 507.337px 524.837px 542.337px 559.837px 577.337px 594.837px 612.337px 629.837px 647.337px 664.837px 682.337px " y="211.609px 211.609px 211.609px 211.609px 211.609px 211.609px 211.609px 211.609px 211.609px 211.609px 211.609px 211.609px 211.609px 211.609px ">/user/include&quot;</tspan></text>
    </g>
    <g transform="matrix(1,0,0,1,-186.335,-84.4941)">
        <g transform="matrix(33.3333,0,0,33.3333,322.329,163.985)">
        </g>
        <text x="249.761px" y="163.985px" style="font-family:'PragmataPro', 'Menlo', monospace;font-size:33.333px;fill:rgb(35,31,32);">argv</text>
    </g>
    <g transform="matrix(1,0,0,1,112.32,-47.5327)">
        <g transform="matrix(33.3333,0,0,33.3333,469.141,175.657)">
        </g>
        <text x="344.073px" y="175.657px" style="font-family:'PragmataPro', 'Menlo', monospace;font-size:33.333px;fill:rgb(35,31,32);">argv[1]</text>
    </g>
    <g transform="matrix(1,0,0,1,70.1146,26.3646)">
        <text x="330.745px" y="198.993px" style="font-family:'PragmataPro', 'Menlo', monospace;font-size:33.333px;fill:rgb(35,31,32);">argv[argc - 1]</text>
        <g transform="matrix(33.3333,0,0,33.3333,485.113,248.909)">
        </g>
        <text x="412.545px" y="248.909px" style="font-family:'PragmataPro', 'Menlo', monospace;font-size:33.333px;fill:rgb(35,31,32);">NULL</text>
    </g>
</svg>
