<?xml version="1.0" encoding="UTF-8" standalone="no"?>
<!DOCTYPE svg PUBLIC "-//W3C//DTD SVG 1.1//EN" "http://www.w3.org/Graphics/SVG/1.1/DTD/svg11.dtd">
<svg width="100%" height="100%" viewBox="0 0 1324 587" version="1.1" xmlns="http://www.w3.org/2000/svg" xmlns:xlink="http://www.w3.org/1999/xlink" xml:space="preserve" xmlns:serif="http://www.serif.com/" style="fill-rule:evenodd;clip-rule:evenodd;stroke-miterlimit:3.864;">
    <g transform="matrix(1,0,0,1,-394.2925,-264.915365)">
        <g transform="matrix(1,0,0,1,298.870633,242.311176)">
            <g transform="matrix(33.333333,0,0,33.333333,112.918611,100.428824)">
            </g>
            <text x="94.38px" y="100.429px" style="font-family:'Helvetica';font-size:33.333px;fill:rgb(35,31,32);">0</text>
        </g>
        <g transform="matrix(1,0,0,1,1264.709033,242.311176)">
            <g transform="matrix(33.333333,0,0,33.333333,453.242868,100.428824)">
            </g>
            <text x="399.382px" y="100.429px" style="font-family:'Helvetica';font-size:33.333px;fill:rgb(35,31,32);">0<tspan x="413.466px 425.678px 439.761px 443.982px " y="100.429px 100.429px 100.429px 100.429px ">x2ff</tspan></text>
        </g>
        <g transform="matrix(1,0,0,1,603.9549,242.311176)">
            <g transform="matrix(33.333333,0,0,33.333333,259.094345,100.428824)">
            </g>
            <text x="190.723px" y="100.429px" style="font-family:'Helvetica';font-size:33.333px;fill:rgb(35,31,32);">0<tspan x="203.649px 214.703px 227.63px 240.556px " y="100.429px 100.429px 100.429px 100.429px ">x100</tspan></text>
        </g>
        <g transform="matrix(1,0,0,1,517.8469,242.311176)">
            <g transform="matrix(33.333333,0,0,33.333333,209.791668,100.428824)">
            </g>
            <text x="163.531px" y="100.429px" style="font-family:'Helvetica';font-size:33.333px;fill:rgb(35,31,32);">0<tspan x="176.488px 187.573px 200.531px " y="100.429px 100.429px 100.429px ">x9f</tspan></text>
        </g>
        <g transform="matrix(1,0,0,1,737.567967,419.302509)">
            <g transform="matrix(33.333333,0,0,33.333333,499.643492,156.320824)">
            </g>
            <text x="232.916px" y="156.321px" style="font-family:'Helvetica';font-size:33.333px;fill:rgb(35,31,32);">_<tspan x="248.415px 254.636px 270.135px 283.762px " y="156.321px 156.321px 156.321px 156.321px ">text</tspan></text>
        </g>
        <g transform="matrix(1,0,0,1,780.938633,419.302509)">
            <g transform="matrix(33.333333,0,0,33.333333,830.0347,156.320824)">
            </g>
            <text x="453.237px" y="156.321px" style="font-family:'Helvetica';font-size:33.333px;fill:rgb(35,31,32);"><tspan x="453.237px 467.615px 481.993px 487.094px 501.472px 513.978px 519.079px 618.279px 632.657px 647.035px 661.413px 675.791px 680.892px 695.27px 768.362px 782.74px 797.118px 811.496px " y="156.321px 156.321px 156.321px 156.321px 156.321px 156.321px 156.321px 156.321px 156.321px 156.321px 156.321px 156.321px 156.321px 156.321px 156.321px 156.321px 156.321px 156.321px ">_etext _edata _end</tspan></text>
        </g>
        <g transform="matrix(1,0,0,1,364.2281,465.219176)">
            <text x="115.019px" y="170.821px" style="font-family:'Helvetica';font-size:33.333px;fill:rgb(35,31,32);">U<tspan x="133.758px 146.962px 160.167px 171.5px 184.704px 186.776px 188.847px 202.052px 215.256px 217.328px 230.533px 243.737px 256.942px 270.146px 283.351px 287.278px 293.044px 306.249px 328.682px 341.886px " y="170.821px 170.821px 170.821px 170.821px 170.821px 170.821px 170.821px 170.821px 170.821px 170.821px 170.821px 170.821px 170.821px 170.821px 170.821px 170.821px 170.821px 170.821px 170.821px 170.821px ">navailablepageframes</tspan></text>
            <text x="115.019px" y="220.821px" style="font-family:'Helvetica';font-size:33.333px;fill:rgb(35,31,32);">A<tspan x="131.412px 142.825px 156.109px 158.26px 160.412px 173.696px 186.98px 189.131px 202.415px 215.7px 228.984px 242.268px 255.552px 259.559px 265.405px 278.689px 301.202px 314.486px " y="220.821px 220.821px 220.821px 220.821px 220.821px 220.821px 220.821px 220.821px 220.821px 220.821px 220.821px 220.821px 220.821px 220.821px 220.821px 220.821px 220.821px 220.821px ">vailablepageframes</tspan></text>
            <text x="115.019px" y="270.821px" style="font-family:'Helvetica';font-size:33.333px;fill:rgb(35,31,32);">K<tspan x="131.268px 143.821px 148.936px 161.49px 174.043px 175.464px 182.019px 192.701px 205.255px 217.808px " y="270.821px 270.821px 270.821px 270.821px 270.821px 270.821px 270.821px 270.821px 270.821px 270.821px ">ernel code</tspan></text>
            <text x="115.019px" y="320.821px" style="font-family:'Helvetica';font-size:33.333px;fill:rgb(35,31,32);">I<tspan x="120.071px 134.4px 137.596px 142.647px 145.844px 160.172px 163.368px 166.565px 179.022px 193.351px 207.679px 220.137px 234.466px 241.356px 255.685px 270.014px 273.21px 283.319px 297.648px 311.977px 317.029px " y="320.821px 320.821px 320.821px 320.821px 320.821px 320.821px 320.821px 320.821px 320.821px 320.821px 320.821px 320.821px 320.821px 320.821px 320.821px 320.821px 320.821px 320.821px 320.821px 320.821px 320.821px ">nitializedkernel data</tspan></text>
            <g transform="matrix(33.333333,0,0,33.333333,362.369773,370.820824)">
            </g>
            <text x="115.019px" y="370.821px" style="font-family:'Helvetica';font-size:33.333px;fill:rgb(35,31,32);">U<tspan x="134.661px 148.768px 151.743px 165.851px 168.825px 173.656px 176.63px 190.738px 193.713px 196.687px 208.923px 223.031px 237.138px 249.374px 263.482px 270.151px 284.258px 298.366px 301.341px 310.786px 324.894px 339.001px 343.831px " y="370.821px 370.821px 370.821px 370.821px 370.821px 370.821px 370.821px 370.821px 370.821px 370.821px 370.821px 370.821px 370.821px 370.821px 370.821px 370.821px 370.821px 370.821px 370.821px 370.821px 370.821px 370.821px 370.821px ">ninitializedkernel data</tspan></text>
        </g>
        <g transform="matrix(1,0,0,1,352.810367,242.311176)">
            <g transform="matrix(33.333333,0,0,33.333333,129.952211,100.428824)">
            </g>
            <text x="111.414px" y="100.429px" style="font-family:'Helvetica';font-size:33.333px;fill:rgb(35,31,32);">1</text>
        </g>
        <g transform="matrix(1,0,0,1,297.543167,201.595443)">
            <g transform="matrix(33.333333,0,0,33.333333,220.399411,87.571224)">
            </g>
            <text x="93.961px" y="87.571px" style="font-family:'Helvetica';font-size:33.333px;fill:rgb(35,31,32);">P<tspan x="110.066px 122.476px 134.886px 147.297px 150.43px 155.402px 167.812px 189.451px 201.861px " y="87.571px 87.571px 87.571px 87.571px 87.571px 87.571px 87.571px 87.571px 87.571px ">ageframe#</tspan></text>
        </g>
        <g transform="matrix(4.166667,0,0,4.166667,-220.833333,-2132.425)">
            <rect x="151.4" y="600.542" width="309.994" height="37.698" style="fill:white;stroke:rgb(35,31,32);stroke-width:1px;"/>
        </g>
        <g transform="matrix(4.166667,0,0,4.166667,-220.833333,-2132.425)">
            <rect x="151.4" y="600.542" width="14.994" height="37.698" style="fill:rgb(35,31,32);stroke:rgb(35,31,32);stroke-width:1px;"/>
        </g>
        <g transform="matrix(4.166666,-0.001344,-0.001344,-4.166666,-220.000876,3029.483097)">
            <path d="M220.009,638.245L251.006,638.245L250.994,600.245L219.997,600.547L220.009,638.245Z" style="fill:rgb(35,31,32);fill-rule:nonzero;stroke:rgb(35,31,32);stroke-width:1px;"/>
        </g>
        <g transform="matrix(4.166667,0,0,4.166667,-220.833333,-2132.425)">
            <rect x="358.894" y="600.542" width="40" height="37.698" style="fill:rgb(167,169,172);stroke:rgb(35,31,32);stroke-width:1px;"/>
        </g>
        <g transform="matrix(4.166667,0,0,4.166667,-220.833333,-2132.425)">
            <rect x="398.394" y="600.542" width="34" height="37.698" style="fill:rgb(108,110,112);stroke:rgb(35,31,32);stroke-width:1px;"/>
        </g>
        <g transform="matrix(4.166667,0,0,4.166667,-220.833333,-2132.425)">
            <rect x="291.897" y="600.542" width="66.997" height="37.698" style="fill:rgb(230,231,232);stroke:rgb(35,31,32);stroke-width:1px;"/>
        </g>
        <g transform="matrix(4.166667,0,0,4.166667,-220.833333,-1781.245833)">
            <rect x="152.397" y="572.754" width="12.997" height="8.991" style="fill:rgb(35,31,32);stroke:rgb(35,31,32);stroke-width:1px;"/>
        </g>
        <g transform="matrix(4.166667,0,0,4.166667,-220.833333,-1681.245833)">
            <rect x="152.397" y="560.754" width="12.997" height="8.991" style="fill:white;stroke:rgb(35,31,32);stroke-width:1px;"/>
        </g>
        <g transform="matrix(4.166667,0,0,4.166667,-220.833333,-1581.245833)">
            <rect x="152.397" y="548.754" width="12.997" height="8.991" style="fill:rgb(230,231,232);stroke:rgb(35,31,32);stroke-width:1px;"/>
        </g>
        <g transform="matrix(4.166667,0,0,4.166667,-220.833333,-1481.245833)">
            <rect x="152.397" y="536.754" width="12.997" height="8.991" style="fill:rgb(167,169,172);stroke:rgb(35,31,32);stroke-width:1px;"/>
        </g>
        <g transform="matrix(4.166667,0,0,4.166667,-220.833333,-1381.245833)">
            <rect x="152.397" y="524.754" width="12.997" height="8.991" style="fill:rgb(108,110,112);stroke:rgb(35,31,32);stroke-width:1px;"/>
        </g>
    </g>
</svg>

