<?xml version="1.0" encoding="UTF-8" standalone="no"?>
<!DOCTYPE svg PUBLIC "-//W3C//DTD SVG 1.1//EN" "http://www.w3.org/Graphics/SVG/1.1/DTD/svg11.dtd">
<svg width="100%" height="100%" viewBox="0 0 1215 755" version="1.1" xmlns="http://www.w3.org/2000/svg" xmlns:xlink="http://www.w3.org/1999/xlink" xml:space="preserve" xmlns:serif="http://www.serif.com/" style="fill-rule:evenodd;clip-rule:evenodd;">
    <g transform="matrix(1,0,0,1,215.397,-291.498)">
        <text x="352.11px" y="578.339px" style="font-family:'Helvetica';font-size:33.333px;fill:rgb(35,31,32);">Back-</text>
        <text x="342.81px" y="615.839px" style="font-family:'Helvetica';font-size:33.333px;fill:rgb(35,31,32);">ground</text>
        <g transform="matrix(33.3333,0,0,33.3333,440.11,653.339)">
        </g>
        <text x="349.31px" y="653.339px" style="font-family:'Helvetica';font-size:33.333px;fill:rgb(35,31,32);">job #1</text>
    </g>
    <g transform="matrix(1,0,0,1,-67.8046,-291.498)">
        <text x="265.444px" y="578.339px" style="font-family:'Helvetica';font-size:33.333px;fill:rgb(35,31,32);">Fore-</text>
        <text x="253.378px" y="615.839px" style="font-family:'Helvetica';font-size:33.333px;fill:rgb(35,31,32);">ground</text>
        <g transform="matrix(33.3333,0,0,33.3333,327.483,653.339)">
        </g>
        <text x="283.011px" y="653.339px" style="font-family:'Helvetica';font-size:33.333px;fill:rgb(35,31,32);">job</text>
    </g>
    <g transform="matrix(1,0,0,1,157.105,-164.704)">
        <text x="364.568px" y="618.379px" style="font-family:'Helvetica-Oblique', 'Helvetica';font-style:italic;font-size:33.333px;fill:rgb(35,31,32);">Bac<tspan x="421.335px 438.002px 456.202px " y="618.379px 618.379px 618.379px ">kgr</tspan>ound</text>
        <g transform="matrix(33.3333,0,0,33.3333,581.602,655.879)">
        </g>
        <text x="324.402px" y="655.879px" style="font-family:'Helvetica-Oblique', 'Helvetica';font-style:italic;font-size:33.333px;fill:rgb(35,31,32);">process g<tspan x="468.567px " y="655.879px ">r</tspan>oup 32</text>
    </g>
    <g transform="matrix(1,0,0,1,-131.543,29.6022)">
        <text x="276.35px" y="679.739px" style="font-family:'Helvetica-Oblique', 'Helvetica';font-style:italic;font-size:33.333px;fill:rgb(35,31,32);">F<tspan x="295.716px " y="679.739px ">o</tspan>reg<tspan x="362.083px " y="679.739px ">r</tspan>ound</text>
        <g transform="matrix(33.3333,0,0,33.3333,490.45,717.239)">
        </g>
        <text x="233.25px" y="717.239px" style="font-family:'Helvetica-Oblique', 'Helvetica';font-style:italic;font-size:33.333px;fill:rgb(35,31,32);">process g<tspan x="377.415px " y="717.239px ">r</tspan>oup 20</text>
    </g>
    <g transform="matrix(1,0,0,1,225.049,-441.344)">
        <g transform="matrix(33.3333,0,0,33.3333,419.963,531.019)">
        </g>
        <text x="345.858px" y="531.019px" style="font-family:'Helvetica';font-size:33.333px;fill:rgb(35,31,32);">Shell</text>
    </g>
    <g transform="matrix(1,0,0,1,-126.375,-111.732)">
        <text x="423.382px" y="635.107px" style="font-family:'Helvetica';font-size:33.333px;fill:rgb(35,31,32);">Child</text>
        <g transform="matrix(33.3333,0,0,33.3333,310.82,640.207)">
        </g>
        <text x="234.882px" y="640.207px" style="font-family:'Helvetica';font-size:33.333px;fill:rgb(35,31,32);">Child</text>
    </g>
    <g transform="matrix(1,0,0,1,428.802,-291.498)">
        <text x="496.201px" y="578.339px" style="font-family:'Helvetica';font-size:33.333px;fill:rgb(35,31,32);">Back-</text>
        <text x="486.901px" y="615.839px" style="font-family:'Helvetica';font-size:33.333px;fill:rgb(35,31,32);">ground</text>
        <text x="493.401px" y="653.339px" style="font-family:'Helvetica';font-size:33.333px;fill:rgb(35,31,32);">job #2</text>
        <text x="450.367px" y="745.172px" style="font-family:'Helvetica-Oblique', 'Helvetica';font-style:italic;font-size:33.333px;fill:rgb(35,31,32);">Bac<tspan x="507.134px 523.801px 542.001px " y="745.172px 745.172px 745.172px ">kgr</tspan>ound</text>
        <g transform="matrix(33.3333,0,0,33.3333,667.401,782.672)">
        </g>
        <text x="410.201px" y="782.672px" style="font-family:'Helvetica-Oblique', 'Helvetica';font-style:italic;font-size:33.333px;fill:rgb(35,31,32);">process g<tspan x="554.366px " y="782.672px ">r</tspan>oup 40</text>
    </g>
    <g transform="matrix(1,0,0,1,-196.146,-302.655)">
        <text x="230.349px" y="576.329px" style="font-family:'Menlo-Regular', 'Menlo', monospace;font-size:33.333px;fill:rgb(35,31,32);">p<tspan x="250.208px 270.067px " y="576.329px 576.329px ">id</tspan></text>
        <text x="289.927px" y="576.329px" style="font-family:'Helvetica';font-size:33.333px;fill:rgb(35,31,32);">$</text>
        <text x="308.256px" y="576.329px" style="font-family:'Menlo-Regular', 'Menlo', monospace;font-size:33.333px;fill:rgb(35,31,32);">2<tspan x="328.115px " y="576.329px ">0</tspan></text>
        <text x="212.849px" y="609.662px" style="font-family:'Menlo-Regular', 'Menlo', monospace;font-size:33.333px;fill:rgb(35,31,32);">p<tspan x="232.315px 251.781px 271.247px " y="609.662px 609.662px 609.662px ">gid</tspan></text>
        <text x="290.713px" y="609.662px" style="font-family:'Helvetica';font-size:33.333px;fill:rgb(35,31,32);">$</text>
        <g transform="matrix(33.3333,0,0,33.3333,348.184,609.662)">
        </g>
        <text x="308.649px" y="609.662px" style="font-family:'Menlo-Regular', 'Menlo', monospace;font-size:33.333px;fill:rgb(35,31,32);">2<tspan x="328.115px " y="609.662px ">0</tspan></text>
    </g>
    <g transform="matrix(1,0,0,1,81.0003,-454.148)">
        <text x="317.869px" y="528.489px" style="font-family:'Menlo-Regular', 'Menlo', monospace;font-size:33.333px;fill:rgb(35,31,32);">p<tspan x="337.728px 357.587px " y="528.489px 528.489px ">id</tspan></text>
        <text x="377.447px" y="528.489px" style="font-family:'Helvetica';font-size:33.333px;fill:rgb(35,31,32);">$</text>
        <text x="395.776px" y="528.489px" style="font-family:'Menlo-Regular', 'Menlo', monospace;font-size:33.333px;fill:rgb(35,31,32);">1<tspan x="415.635px " y="528.489px ">0</tspan></text>
        <text x="300.369px" y="561.822px" style="font-family:'Menlo-Regular', 'Menlo', monospace;font-size:33.333px;fill:rgb(35,31,32);">p<tspan x="319.835px 339.301px 358.767px " y="561.822px 561.822px 561.822px ">gid</tspan></text>
        <text x="378.233px" y="561.822px" style="font-family:'Helvetica';font-size:33.333px;fill:rgb(35,31,32);">$</text>
        <g transform="matrix(33.3333,0,0,33.3333,435.704,561.822)">
        </g>
        <text x="396.169px" y="561.822px" style="font-family:'Menlo-Regular', 'Menlo', monospace;font-size:33.333px;fill:rgb(35,31,32);">1<tspan x="415.635px " y="561.822px ">0</tspan></text>
    </g>
    <g transform="matrix(1,0,0,1,-161.389,-40.8349)">
        <text x="241.325px" y="659.009px" style="font-family:'Menlo-Regular', 'Menlo', monospace;font-size:33.333px;fill:rgb(35,31,32);">p<tspan x="261.184px 281.043px " y="659.009px 659.009px ">id</tspan></text>
        <text x="300.903px" y="659.009px" style="font-family:'Helvetica';font-size:33.333px;fill:rgb(35,31,32);">$</text>
        <text x="319.232px" y="659.009px" style="font-family:'Menlo-Regular', 'Menlo', monospace;font-size:33.333px;fill:rgb(35,31,32);">2<tspan x="339.091px " y="659.009px ">1</tspan></text>
        <text x="223.825px" y="692.342px" style="font-family:'Menlo-Regular', 'Menlo', monospace;font-size:33.333px;fill:rgb(35,31,32);">p<tspan x="243.291px 262.757px 282.223px " y="692.342px 692.342px 692.342px ">gid</tspan></text>
        <text x="301.689px" y="692.342px" style="font-family:'Helvetica';font-size:33.333px;fill:rgb(35,31,32);">$</text>
        <g transform="matrix(33.3333,0,0,33.3333,359.16,692.342)">
        </g>
        <text x="319.625px" y="692.342px" style="font-family:'Menlo-Regular', 'Menlo', monospace;font-size:33.333px;fill:rgb(35,31,32);">2<tspan x="339.091px " y="692.342px ">0</tspan></text>
    </g>
    <g transform="matrix(1,0,0,1,-11.5424,-40.8349)">
        <text x="288.645px" y="659.009px" style="font-family:'Menlo-Regular', 'Menlo', monospace;font-size:33.333px;fill:rgb(35,31,32);">p<tspan x="308.504px 328.363px " y="659.009px 659.009px ">id</tspan></text>
        <text x="348.223px" y="659.009px" style="font-family:'Helvetica';font-size:33.333px;fill:rgb(35,31,32);">$</text>
        <text x="366.552px" y="659.009px" style="font-family:'Menlo-Regular', 'Menlo', monospace;font-size:33.333px;fill:rgb(35,31,32);">2<tspan x="386.411px " y="659.009px ">2</tspan></text>
        <text x="271.145px" y="692.342px" style="font-family:'Menlo-Regular', 'Menlo', monospace;font-size:33.333px;fill:rgb(35,31,32);">p<tspan x="290.611px 310.077px 329.543px " y="692.342px 692.342px 692.342px ">gid</tspan></text>
        <text x="349.009px" y="692.342px" style="font-family:'Helvetica';font-size:33.333px;fill:rgb(35,31,32);">$</text>
        <g transform="matrix(33.3333,0,0,33.3333,406.48,692.342)">
        </g>
        <text x="366.945px" y="692.342px" style="font-family:'Menlo-Regular', 'Menlo', monospace;font-size:33.333px;fill:rgb(35,31,32);">2<tspan x="386.411px " y="692.342px ">0</tspan></text>
    </g>
    <g transform="matrix(1,0,0,1,339.451,-277.955)">
        <text x="381.985px" y="584.129px" style="font-family:'Menlo-Regular', 'Menlo', monospace;font-size:33.333px;fill:rgb(35,31,32);">p<tspan x="401.844px 421.703px " y="584.129px 584.129px ">id</tspan></text>
        <text x="441.563px" y="584.129px" style="font-family:'Helvetica';font-size:33.333px;fill:rgb(35,31,32);">$</text>
        <text x="459.892px" y="584.129px" style="font-family:'Menlo-Regular', 'Menlo', monospace;font-size:33.333px;fill:rgb(35,31,32);">3<tspan x="479.751px " y="584.129px ">2</tspan></text>
        <text x="381.985px" y="617.462px" style="font-family:'Menlo-Regular', 'Menlo', monospace;font-size:33.333px;fill:rgb(35,31,32);">p<tspan x="401.451px 420.917px 440.383px " y="617.462px 617.462px 617.462px ">gid</tspan></text>
        <text x="459.849px" y="617.462px" style="font-family:'Helvetica';font-size:33.333px;fill:rgb(35,31,32);">$</text>
        <g transform="matrix(33.3333,0,0,33.3333,517.32,617.462)">
        </g>
        <text x="477.785px" y="617.462px" style="font-family:'Menlo-Regular', 'Menlo', monospace;font-size:33.333px;fill:rgb(35,31,32);">3<tspan x="497.251px " y="617.462px ">2</tspan></text>
    </g>
    <g transform="matrix(1,0,0,1,612.798,-277.955)">
        <text x="468.305px" y="584.129px" style="font-family:'Menlo-Regular', 'Menlo', monospace;font-size:33.333px;fill:rgb(35,31,32);">p<tspan x="488.164px 508.023px " y="584.129px 584.129px ">id</tspan></text>
        <text x="527.883px" y="584.129px" style="font-family:'Helvetica';font-size:33.333px;fill:rgb(35,31,32);">$</text>
        <text x="546.212px" y="584.129px" style="font-family:'Menlo-Regular', 'Menlo', monospace;font-size:33.333px;fill:rgb(35,31,32);">4<tspan x="566.071px " y="584.129px ">0</tspan></text>
        <text x="468.305px" y="617.462px" style="font-family:'Menlo-Regular', 'Menlo', monospace;font-size:33.333px;fill:rgb(35,31,32);">p<tspan x="487.771px 507.237px 526.703px " y="617.462px 617.462px 617.462px ">gid</tspan></text>
        <text x="546.169px" y="617.462px" style="font-family:'Helvetica';font-size:33.333px;fill:rgb(35,31,32);">$</text>
        <g transform="matrix(33.3333,0,0,33.3333,603.64,617.462)">
        </g>
        <text x="564.105px" y="617.462px" style="font-family:'Menlo-Regular', 'Menlo', monospace;font-size:33.333px;fill:rgb(35,31,32);">4<tspan x="583.571px " y="617.462px ">0</tspan></text>
    </g>
    <g transform="matrix(-1.73618,3.78772,3.78772,1.73618,193.042,427.495)">
        <path d="M-9.724,-6.24L4.004,-6.24" style="fill:none;fill-rule:nonzero;stroke:rgb(35,31,32);stroke-width:0.5px;"/>
    </g>
    <g transform="matrix(1.9414,3.68675,3.68675,-1.9414,318.804,379.579)">
        <path d="M-4.081,-6.76L11.201,-6.76" style="fill:none;fill-rule:nonzero;stroke:rgb(35,31,32);stroke-width:0.5px;"/>
    </g>
    <g transform="matrix(3.66036,-1.99069,-1.99069,-3.66036,346.053,315.84)">
        <path d="M-4.1,16.12L63.379,16.119" style="fill:none;fill-rule:nonzero;stroke:rgb(35,31,32);stroke-width:0.5px;"/>
    </g>
    <g transform="matrix(-3.59054,-2.11403,-2.11403,3.59054,722.274,83.4607)">
        <path d="M-60.103,16.38L4.464,16.38" style="fill:none;fill-rule:nonzero;stroke:rgb(35,31,32);stroke-width:0.5px;"/>
    </g>
    <g transform="matrix(0,4.16667,4.16667,0,646.605,198.742)">
        <path d="M-9.08,-9.08L9.08,-9.08" style="fill:none;fill-rule:nonzero;stroke:rgb(35,31,32);stroke-width:0.5px;"/>
    </g>
    <g transform="matrix(0,-4.16667,-4.16667,0,608.774,236.573)">
        <circle cx="-19" cy="0" r="19" style="fill:none;stroke:rgb(35,31,32);stroke-width:0.3px;"/>
    </g>
    <g transform="matrix(0,-4.16667,-4.16667,0,236.107,236.573)">
        <circle cx="-19" cy="0" r="19" style="fill:none;stroke:rgb(35,31,32);stroke-width:0.3px;"/>
    </g>
    <g transform="matrix(0,-4.16667,-4.16667,0,608.774,2.57694)">
        <circle cx="-19" cy="0" r="19" style="fill:none;stroke:rgb(35,31,32);stroke-width:0.3px;"/>
    </g>
    <g transform="matrix(0,-4.16667,-4.16667,0,335.778,433.735)">
        <circle cx="-19" cy="0" r="19" style="fill:none;stroke:rgb(35,31,32);stroke-width:0.3px;"/>
    </g>
    <g transform="matrix(0,-4.16667,-4.16667,0,147.282,433.735)">
        <circle cx="-19" cy="0" r="19" style="fill:none;stroke:rgb(35,31,32);stroke-width:0.3px;"/>
    </g>
    <g transform="matrix(4.16667,0,0,4.16667,-870.168,-2047.19)">
        <clipPath id="_clip1">
            <rect x="209.621" y="491.794" width="290.55" height="180.573" clip-rule="nonzero"/>
        </clipPath>
        <g clip-path="url(#_clip1)">
            <g transform="matrix(1,0,0,1,312.309,544.525)">
                <rect x="-102.438" y="0" width="102.438" height="106.079" style="fill:none;stroke:rgb(35,31,32);stroke-width:0.5px;stroke-dasharray:2,1;"/>
            </g>
            <g transform="matrix(1,0,0,1,378.348,544.525)">
                <rect x="-47.319" y="0" width="47.319" height="44.2" style="fill:none;stroke:rgb(35,31,32);stroke-width:0.5px;stroke-dasharray:2,1;"/>
            </g>
            <g transform="matrix(0,-1,-1,0,440.745,548.103)">
                <circle cx="-19" cy="0" r="19" style="fill:none;stroke:rgb(35,31,32);stroke-width:0.3px;"/>
            </g>
            <g transform="matrix(1,0,0,1,464.147,544.525)">
                <rect x="-47.319" y="0" width="47.319" height="44.2" style="fill:none;stroke:rgb(35,31,32);stroke-width:0.5px;stroke-dasharray:2,1;"/>
            </g>
        </g>
    </g>
</svg>
